<?xml version="1.0" standalone="no"?>
<!DOCTYPE svg PUBLIC "-//W3C//DTD SVG 20010904//EN"
 "http://www.w3.org/TR/2001/REC-SVG-20010904/DTD/svg10.dtd">
<svg version="1.0" xmlns="http://www.w3.org/2000/svg"
 width="972.000000pt" height="972.000000pt" viewBox="0 0 972.000000 972.000000"
 preserveAspectRatio="xMidYMid meet">
<metadata>
Created by potrace 1.11, written by Peter Selinger 2001-2013
</metadata>
<g transform="translate(0.000000,972.000000) scale(0.100000,-0.100000)"
fill="#000000" stroke="none">
<path d="M1852 6673 c-1 -775 -4 -1435 -7 -1468 -24 -238 -59 -341 -132 -393
-41 -28 -137 -61 -202 -70 -107 -14 -341 -8 -421 11 -193 44 -303 142 -324
287 -3 25 -9 108 -11 185 -7 206 -15 387 -19 410 -3 20 -12 20 -362 23 l-359
2 -2 -77 c-4 -125 -2 -423 2 -483 12 -165 27 -276 51 -380 9 -36 17 -72 19
-80 34 -151 136 -310 245 -380 84 -54 244 -110 380 -134 14 -2 41 -7 60 -10
119 -22 279 -31 535 -31 292 0 409 8 580 40 303 56 477 163 574 355 42 84 95
246 106 330 3 25 8 52 10 60 2 8 7 44 10 80 4 36 9 81 12 100 3 19 6 709 7
1533 l2 1497 -377 0 -377 0 0 -1407z"/>
<path d="M3724 7333 c-137 -412 -249 -750 -249 -753 -1 -3 -4 -12 -8 -20 -3
-8 -101 -303 -218 -655 -116 -352 -296 -895 -400 -1207 -104 -312 -189 -572
-189 -578 0 -7 128 -9 396 -8 l396 3 75 230 c41 127 96 295 122 375 l48 145
856 3 855 2 107 -322 c59 -178 116 -349 127 -380 l21 -58 388 0 c214 0 389 2
389 4 0 5 -173 521 -259 771 -34 99 -66 194 -71 210 -4 17 -106 318 -225 670
-119 352 -238 705 -265 785 -27 80 -144 426 -260 770 -116 344 -221 655 -232
693 l-21 67 -568 0 -567 0 -248 -747z m961 -253 c70 -212 155 -468 188 -570
33 -102 63 -194 68 -205 4 -11 67 -200 139 -420 72 -220 135 -410 141 -423 5
-13 9 -27 9 -32 0 -6 -254 -10 -675 -10 -371 0 -675 3 -675 7 0 5 11 42 24 83
106 327 213 655 246 755 21 66 91 282 155 480 219 676 239 735 246 727 4 -4
64 -180 134 -392z"/>
<path d="M6479 8048 c0 -43 0 -3886 0 -3915 l1 -23 375 0 375 0 0 671 0 670
623 -3 c600 -4 624 -5 689 -25 102 -32 155 -62 217 -123 66 -64 101 -126 132
-230 21 -72 22 -94 25 -510 2 -239 4 -438 4 -442 0 -5 169 -8 376 -8 l375 0
-4 533 c-2 292 -6 543 -10 557 -4 14 -9 35 -11 48 -31 153 -113 288 -233 384
-61 48 -214 104 -313 114 -67 7 -90 13 -90 24 0 5 12 12 28 15 84 18 288 91
343 123 133 77 224 195 265 344 25 88 30 115 48 238 10 68 18 227 20 372 5
470 -73 756 -259 943 -66 66 -97 89 -175 127 -87 42 -146 64 -225 84 -16 4
-34 8 -40 10 -17 4 -187 33 -240 40 -27 4 -555 9 -1172 11 l-1123 4 -1 -33z
m2116 -612 c73 -17 142 -39 176 -57 36 -18 109 -93 109 -112 0 -5 6 -23 14
-40 17 -39 29 -92 45 -207 10 -71 7 -453 -3 -510 -47 -242 -112 -333 -277
-385 -43 -13 -112 -29 -151 -34 -40 -5 -344 -10 -675 -10 l-603 -2 0 686 0
686 668 -4 c367 -2 681 -7 697 -11z"/>
<path d="M84 3869 c-11 -6 -28 -23 -37 -39 -16 -26 -17 -114 -17 -1065 0
-1022 0 -1038 20 -1070 11 -18 30 -35 43 -39 12 -3 487 -6 1055 -6 764 0 1039
3 1055 12 56 29 52 -46 55 1087 1 719 -1 1054 -8 1072 -6 14 -24 33 -39 42
-27 16 -110 17 -1068 16 -676 0 -1045 -4 -1059 -10z"/>
<path d="M2561 3866 c-52 -29 -50 15 -51 -1100 0 -1023 0 -1039 20 -1071 11
-18 30 -35 43 -39 12 -3 487 -6 1055 -6 1122 0 1074 -2 1100 55 16 35 17 2082
1 2118 -6 13 -23 31 -39 40 -26 16 -115 17 -1067 17 -842 -1 -1043 -3 -1062
-14z"/>
<path d="M7534 3869 c-11 -6 -28 -23 -37 -39 -16 -26 -17 -114 -17 -1065 0
-1126 -2 -1077 55 -1103 37 -17 2086 -17 2118 -1 12 7 29 21 39 33 16 20 17
84 18 1063 0 729 -3 1049 -11 1066 -6 13 -23 31 -39 40 -26 16 -115 17 -1067
16 -676 0 -1045 -4 -1059 -10z"/>
<path d="M5041 3856 c-52 -29 -50 16 -51 -1106 l0 -1045 25 -27 c14 -15 36
-30 48 -33 12 -3 490 -4 1063 -3 1128 3 1053 -1 1082 55 9 16 12 292 12 1058
0 950 -1 1039 -17 1065 -9 16 -27 33 -40 39 -38 18 -2090 15 -2122 -3z"/>
</g>
</svg>
